name C:\Users\u0101727\Documents\MyRepositories\upper-imu-dc\Results\main_tracking\Case_42\FLX01_angularVelocities_groundFrame.mot
datacolumns 4
datarows 105
range 2.01000000 3.05000000
endheader 
time	radius_imu_x	radius_imu_y	radius_imu_z	
          2.01000000	         -0.81347411	          0.49725576	          0.99406713	
          2.02000000	         -0.82447117	          0.45260996	          0.99189657	
          2.03000000	         -0.83207985	          0.40945628	          0.98964794	
          2.04000000	         -0.83593857	          0.36821479	          0.98735869	
          2.05000000	         -0.83583252	          0.32923732	          0.98505385	
          2.06000000	         -0.83171683	          0.29278530	          0.98274532	
          2.07000000	         -0.82374046	          0.25900413	          0.98042845	
          2.08000000	         -0.81226242	          0.22789875	          0.97807716	
          2.09000000	         -0.79785097	          0.19931681	          0.97563945	
          2.10000000	         -0.78125853	          0.17294607	          0.97303551	
          2.11000000	         -0.76336861	          0.14833165	          0.97016019	
          2.12000000	         -0.74511702	          0.12491574	          0.96689091	
          2.13000000	         -0.72739660	          0.10209711	          0.96310126	
          2.14000000	         -0.71096266	          0.07930160	          0.95867885	
          2.15000000	         -0.69636104	          0.05604768	          0.95354335	
          2.16000000	         -0.68389717	          0.03199066	          0.94765919	
          2.17000000	         -0.67364750	          0.00693837	          0.94103924	
          2.18000000	         -0.66549904	         -0.01915686	          0.93373969	
          2.19000000	         -0.65919859	         -0.04621907	          0.92584923	
          2.20000000	         -0.65439834	         -0.07407274	          0.91747635	
          2.21000000	         -0.65069398	         -0.10246586	          0.90873787	
          2.22000000	         -0.64765997	         -0.13109462	          0.89974914	
          2.23000000	         -0.64488819	         -0.15963484	          0.89061506	
          2.24000000	         -0.64202851	         -0.18777938	          0.88142202	
          2.25000000	         -0.63882272	         -0.21527418	          0.87223200	
          2.26000000	         -0.63512277	         -0.24194401	          0.86308012	
          2.27000000	         -0.63088960	         -0.26770228	          0.85397604	
          2.28000000	         -0.62617307	         -0.29254266	          0.84490910	
          2.29000000	         -0.62107728	         -0.31651397	          0.83585644	
          2.30000000	         -0.61571801	         -0.33968293	          0.82679299	
          2.31000000	         -0.61018048	         -0.36209193	          0.81770158	
          2.32000000	         -0.60448502	         -0.38371990	          0.80858161	
          2.33000000	         -0.59856825	         -0.40445562	          0.79945422	
          2.34000000	         -0.59228610	         -0.42409257	          0.79036215	
          2.35000000	         -0.58543867	         -0.44234890	          0.78136416	
          2.36000000	         -0.57780933	         -0.45890675	          0.77252554	
          2.37000000	         -0.56920642	         -0.47346003	          0.76390783	
          2.38000000	         -0.55949898	         -0.48576042	          0.75555972	
          2.39000000	         -0.54864102	         -0.49565426	          0.74751062	
          2.40000000	         -0.53668080	         -0.50310390	          0.73976759	
          2.41000000	         -0.52375464	         -0.50819067	          0.73231590	
          2.42000000	         -0.51006912	         -0.51110193	          0.72512262	
          2.43000000	         -0.49587666	         -0.51210686	          0.71814237	
          2.44000000	         -0.48144826	         -0.51152530	          0.71132443	
          2.45000000	         -0.46704614	         -0.50969244	          0.70462074	
          2.46000000	         -0.45289819	         -0.50692238	          0.69799413	
          2.47000000	         -0.43917682	         -0.50347442	          0.69142548	
          2.48000000	         -0.42598519	         -0.49952740	          0.68491822	
          2.49000000	         -0.41335426	         -0.49516855	          0.67849855	
          2.50000000	         -0.40125233	         -0.49040110	          0.67221049	
          2.51000000	         -0.38960421	         -0.48516826	          0.66610686	
          2.52000000	         -0.37831455	         -0.47938641	          0.66023836	
          2.53000000	         -0.36729023	         -0.47297940	          0.65464346	
          2.54000000	         -0.35645895	         -0.46590843	          0.64934081	
          2.55000000	         -0.34578185	         -0.45819329	          0.64432558	
          2.56000000	         -0.33525928	         -0.44992223	          0.63956998	
          2.57000000	         -0.32492955	         -0.44125047	          0.63502743	
          2.58000000	         -0.31486228	         -0.43238918	          0.63063917	
          2.59000000	         -0.30514794	         -0.42358735	          0.62634204	
          2.60000000	         -0.29588495	         -0.41510849	          0.62207655	
          2.61000000	         -0.28716603	         -0.40720445	          0.61779444	
          2.62000000	         -0.27906524	         -0.40008952	          0.61346446	
          2.63000000	         -0.27162732	         -0.39391840	          0.60907532	
          2.64000000	         -0.26486075	         -0.38877153	          0.60463543	
          2.65000000	         -0.25873561	         -0.38465041	          0.60016971	
          2.66000000	         -0.25318668	         -0.38148332	          0.59571434	
          2.67000000	         -0.24812035	         -0.37913913	          0.59131060	
          2.68000000	         -0.24342330	         -0.37744491	          0.58699892	
          2.69000000	         -0.23897091	         -0.37620278	          0.58281409	
          2.70000000	         -0.23463514	         -0.37520453	          0.57878202	
          2.71000000	         -0.23029252	         -0.37424526	          0.57491780	
          2.72000000	         -0.22583294	         -0.37313763	          0.57122432	
          2.73000000	         -0.22116787	         -0.37172592	          0.56769115	
          2.74000000	         -0.21623580	         -0.36989626	          0.56429395	
          2.75000000	         -0.21100297	         -0.36757930	          0.56099497	
          2.76000000	         -0.20545958	         -0.36474485	          0.55774491	
          2.77000000	         -0.19961369	         -0.36139206	          0.55448577	
          2.78000000	         -0.19348551	         -0.35754019	          0.55115402	
          2.79000000	         -0.18710376	         -0.35322266	          0.54768389	
          2.80000000	         -0.18050385	         -0.34848432	          0.54401037	
          2.81000000	         -0.17372666	         -0.34337989	          0.54007212	
          2.82000000	         -0.16681679	         -0.33797065	          0.53581452	
          2.83000000	         -0.15982009	         -0.33231903	          0.53119251	
          2.84000000	         -0.15278129	         -0.32648324	          0.52617286	
          2.85000000	         -0.14574278	         -0.32051466	          0.52073508	
          2.86000000	         -0.13874472	         -0.31445865	          0.51487094	
          2.87000000	         -0.13182550	         -0.30835648	          0.50858303	
          2.88000000	         -0.12502116	         -0.30224458	          0.50188276	
          2.89000000	         -0.11836320	         -0.29614949	          0.49478873	
          2.90000000	         -0.11187551	         -0.29008033	          0.48732512	
          2.91000000	         -0.10557201	         -0.28402356	          0.47951980	
          2.92000000	         -0.09945633	         -0.27794419	          0.47140154	
          2.93000000	         -0.09352395	         -0.27179506	          0.46299630	
          2.94000000	         -0.08776589	         -0.26553175	          0.45432331	
          2.95000000	         -0.08217305	         -0.25912848	          0.44539222	
          2.96000000	         -0.07674017	         -0.25259072	          0.43620246	
          2.97000000	         -0.07146913	         -0.24596218	          0.42674476	
          2.98000000	         -0.06637153	         -0.23932670	          0.41700415	
          2.99000000	         -0.06146965	         -0.23280441	          0.40696328	
          3.00000000	         -0.05679471	         -0.22654021	          0.39660589	
          3.01000000	         -0.05238143	         -0.22068365	          0.38592025	
          3.02000000	         -0.04826053	         -0.21536498	          0.37490163	
          3.03000000	         -0.04445178	         -0.21067582	          0.36355288	
          3.04000000	         -0.04096016	         -0.20666130	          0.35188268	
          3.05000000	         -0.03777606	         -0.20332458	          0.33990229	
